<?xml version="1.0" encoding="iso-8859-1"?>
<!-- Generator: Adobe Illustrator 19.0.0, SVG Export Plug-In . SVG Version: 6.00 Build 0)  -->
<svg version="1.1" id="Capa_1" xmlns="http://www.w3.org/2000/svg" xmlns:xlink="http://www.w3.org/1999/xlink" x="0px" y="0px"
	 viewBox="0 0 496 496" style="enable-background:new 0 0 496 496;" xml:space="preserve">
<g>
	<g>
		<path d="M248,128c-66.168,0-120,53.832-120,120s53.832,120,120,120s120-53.832,120-120S314.168,128,248,128z M224.592,146.752
			c-6.72,7.328-14.248,16.944-21.032,28.752c-8.696-3.632-14.792-7.608-18.32-10.24C196.736,156.52,210.072,150.112,224.592,146.752
			z M173.064,176.072c3.776,3.136,11.496,8.768,23.232,13.808c-6.304,14.296-10.872,31.056-11.928,50.12H144.4
			C146.304,215.264,156.848,192.96,173.064,176.072z M144.408,256h39.968c1.048,19.064,5.624,35.824,11.928,50.12
			c-11.736,5.04-19.456,10.672-23.232,13.808C156.848,303.04,146.304,280.728,144.408,256z M185.24,330.736
			c3.52-2.632,9.616-6.6,18.312-10.24c6.784,11.808,14.32,21.424,21.04,28.752C210.072,345.888,196.744,339.48,185.24,330.736z
			 M240,342.16c-6.224-6.36-13.816-15.408-20.736-26.808c6.16-1.504,13.08-2.632,20.736-3.104V342.16z M240,256v40.248
			c-10.736,0.584-20.192,2.288-28.448,4.576c-5.808-12.792-10.096-27.808-11.176-44.824L240,256L240,256z M240,240h-39.616
			c1.08-16.992,5.384-32.008,11.216-44.808c8.248,2.28,17.688,3.984,28.4,4.56V240z M240,183.752
			c-7.632-0.472-14.52-1.592-20.672-3.088c6.904-11.36,14.472-20.392,20.672-26.76V183.752z M351.584,240h-39.96
			c-1.048-19.064-5.624-35.824-11.928-50.12c11.736-5.04,19.456-10.672,23.232-13.808C339.144,192.96,349.688,215.272,351.584,240z
			 M310.76,165.264c-3.52,2.632-9.616,6.6-18.32,10.24c-6.784-11.808-14.312-21.424-21.032-28.752
			C285.928,150.112,299.264,156.52,310.76,165.264z M256,153.848c6.216,6.36,13.816,15.4,20.736,26.808
			c-6.168,1.504-13.08,2.632-20.736,3.104V153.848z M256,199.752c10.736-0.584,20.192-2.288,28.44-4.576
			c5.808,12.792,10.096,27.808,11.176,44.824H256V199.752z M256,256h39.616c-1.08,16.992-5.384,32.008-11.224,44.808
			c-8.24-2.28-17.68-3.984-28.392-4.56V256z M256,312.24c7.632,0.472,14.52,1.592,20.672,3.088
			c-6.904,11.368-14.472,20.4-20.672,26.76V312.24z M271.4,349.248c6.736-7.328,14.264-16.944,21.04-28.752
			c8.696,3.632,14.792,7.6,18.312,10.24C299.256,339.48,285.928,345.888,271.4,349.248z M322.936,319.928
			c-3.776-3.136-11.496-8.768-23.232-13.808c6.304-14.296,10.872-31.056,11.928-50.12H351.6
			C349.696,280.728,339.152,303.04,322.936,319.928z"/>
	</g>
</g>
<g>
	<g>
		<path d="M456,208c-2.048,0-4.016,0.304-5.984,0.608l-29-78.72C432.36,122.824,440,110.328,440,96c0-22.056-17.944-40-40-40
			c-14.328,0-26.824,7.64-33.888,18.992l-78.72-29C287.696,44.016,288,42.048,288,40c0-22.056-17.944-40-40-40
			c-22.056,0-40,17.944-40,40c0,2.048,0.304,4.016,0.608,5.984l-78.72,29C122.824,63.64,110.328,56,96,56c-22.056,0-40,17.944-40,40
			c0,14.328,7.64,26.824,18.992,33.888l-29,78.72C44.016,208.304,42.048,208,40,208c-22.056,0-40,17.944-40,40
			c0,22.056,17.944,40,40,40c2.048,0,4.016-0.304,5.984-0.608l29,78.72C63.64,373.176,56,385.672,56,400c0,22.056,17.944,40,40,40
			c14.328,0,26.824-7.64,33.888-18.992l78.72,29C208.304,451.984,208,453.952,208,456c0,22.056,17.944,40,40,40
			c22.056,0,40-17.944,40-40c0-2.048-0.304-4.016-0.608-5.984l78.72-29C373.176,432.36,385.672,440,400,440
			c22.056,0,40-17.944,40-40c0-14.328-7.64-26.824-18.992-33.888l29-78.72c1.976,0.304,3.944,0.608,5.992,0.608
			c22.056,0,40-17.944,40-40C496,225.944,478.056,208,456,208z M400,72c13.232,0,24,10.768,24,24s-10.768,24-24,24s-24-10.768-24-24
			S386.768,72,400,72z M248,16c13.232,0,24,10.768,24,24s-10.768,24-24,24s-24-10.768-24-24S234.768,16,248,16z M72,96
			c0-13.232,10.768-24,24-24s24,10.768,24,24s-10.768,24-24,24S72,109.232,72,96z M40,272c-13.232,0-24-10.768-24-24
			s10.768-24,24-24s24,10.768,24,24S53.232,272,40,272z M96,424c-13.232,0-24-10.768-24-24s10.768-24,24-24s24,10.768,24,24
			S109.232,424,96,424z M248,480c-13.232,0-24-10.768-24-24s10.768-24,24-24s24,10.768,24,24S261.232,480,248,480z M424,400
			c0,13.232-10.768,24-24,24s-24-10.768-24-24s10.768-24,24-24S424,386.768,424,400z M405.984,360.608
			C404.016,360.304,402.048,360,400,360c-8.136,0-15.696,2.472-22.024,6.664l-22.496-22.496l-11.312,11.312l22.496,22.496
			C362.472,384.304,360,391.864,360,400c0,2.048,0.304,4.016,0.608,5.984l-78.72,29C276.176,425.8,266.944,419.032,256,416.8V392
			h-16v24.808c-10.936,2.232-20.168,9-25.888,18.184l-78.72-29c0.304-1.976,0.608-3.944,0.608-5.992
			c0-8.136-2.472-15.696-6.664-22.024l22.496-22.496l-11.312-11.312l-22.496,22.496C111.696,362.472,104.136,360,96,360
			c-2.048,0-4.016,0.304-5.984,0.608l-29-78.72C70.2,276.176,76.968,266.944,79.2,256H104v-16H79.192
			c-2.232-10.936-9-20.168-18.184-25.888l29-78.72C91.984,135.696,93.952,136,96,136c8.136,0,15.696-2.472,22.024-6.664
			l22.504,22.496l11.312-11.312l-22.504-22.496C133.528,111.704,136,104.136,136,96c0-2.048-0.304-4.016-0.608-5.984l78.72-29
			C219.824,70.2,229.056,76.968,240,79.2V104h16V79.192c10.936-2.232,20.168-9,25.888-18.184l78.72,29
			C360.304,91.984,360,93.952,360,96c0,8.136,2.472,15.704,6.664,22.024L344.16,140.52l11.312,11.312l22.504-22.496
			C384.304,133.528,391.864,136,400,136c2.048,0,4.016-0.304,5.984-0.608l29,78.72C425.8,219.824,419.032,229.056,416.8,240H392v16
			h24.808c2.232,10.936,9,20.168,18.184,25.888L405.984,360.608z M456,272c-13.232,0-24-10.768-24-24s10.768-24,24-24
			s24,10.768,24,24S469.232,272,456,272z"/>
	</g>
</g>
<g>
</g>
<g>
</g>
<g>
</g>
<g>
</g>
<g>
</g>
<g>
</g>
<g>
</g>
<g>
</g>
<g>
</g>
<g>
</g>
<g>
</g>
<g>
</g>
<g>
</g>
<g>
</g>
<g>
</g>
</svg>
